<?xml version="1.0" encoding="UTF-8" standalone="no"?>
<!-- Created with Inkscape (http://www.inkscape.org/) -->

<svg
   xmlns:dc="http://purl.org/dc/elements/1.1/"
   xmlns:cc="http://creativecommons.org/ns#"
   xmlns:rdf="http://www.w3.org/1999/02/22-rdf-syntax-ns#"
   xmlns:svg="http://www.w3.org/2000/svg"
   xmlns="http://www.w3.org/2000/svg"
   xmlns:sodipodi="http://sodipodi.sourceforge.net/DTD/sodipodi-0.dtd"
   xmlns:inkscape="http://www.inkscape.org/namespaces/inkscape"
   width="78mm"
   height="78mm"
   viewBox="0 0 78.000001 78.000001"
   version="1.1"
   id="svg8"
   inkscape:version="0.92.3 (2405546, 2018-03-11)"
   sodipodi:docname="falcosidekick_color.svg"
   inkscape:export-filename="C:\Users\thomas.labarussias\Golang\falcosidekick\imgs\falcosidekick_color.png"
   inkscape:export-xdpi="95.412819"
   inkscape:export-ydpi="95.412819">
  <defs
     id="defs2" />
  <sodipodi:namedview
     id="base"
     pagecolor="#ffffff"
     bordercolor="#666666"
     borderopacity="1.0"
     inkscape:pageopacity="0"
     inkscape:pageshadow="2"
     inkscape:zoom="3.68"
     inkscape:cx="100.35887"
     inkscape:cy="139.53739"
     inkscape:document-units="mm"
     inkscape:current-layer="g4684"
     showgrid="false"
     showguides="false"
     fit-margin-top="0"
     fit-margin-left="0"
     fit-margin-right="0"
     fit-margin-bottom="0"
     inkscape:window-width="2400"
     inkscape:window-height="1321"
     inkscape:window-x="2391"
     inkscape:window-y="-9"
     inkscape:window-maximized="1"
     inkscape:pagecheckerboard="true" />
  <metadata
     id="metadata5">
    <rdf:RDF>
      <cc:Work
         rdf:about="">
        <dc:format>image/svg+xml</dc:format>
        <dc:type
           rdf:resource="http://purl.org/dc/dcmitype/StillImage" />
        <dc:title></dc:title>
      </cc:Work>
    </rdf:RDF>
  </metadata>
  <g
     inkscape:label="Calque 1"
     inkscape:groupmode="layer"
     id="layer1"
     transform="translate(-29.32274,-92.380321)">
    <g
       id="g4684"
       transform="translate(-1.4835043e-7,-0.61969616)">
      <path
         style="fill:#c7aa8b;fill-opacity:1;stroke:#1a1a1a;stroke-width:0.5;stroke-linecap:round;stroke-linejoin:round;stroke-miterlimit:4;stroke-dasharray:none;stroke-dashoffset:0;paint-order:normal"
         d="m 97.550973,141.29001 c 0,0 5.678517,1.62412 6.311497,2.95716 0.63297,1.33304 -0.0926,2.90215 -1.18313,3.2647 -1.70492,0.56679 -6.687773,-1.40316 -6.687773,-1.40316 1.005941,-1.49038 1.869429,-3.0147 1.559409,-4.8187 z"
         id="path4614"
         inkscape:connector-curvature="0"
         sodipodi:nodetypes="czsccc" />
      <path
         sodipodi:nodetypes="czscc"
         inkscape:connector-curvature="0"
         id="path866"
         d="m 94.561346,161.87383 c 0,0 4.194594,3.61103 5.612074,3.25517 1.41749,-0.35584 2.85871,-2.64983 2.44923,-3.73622 -1.02816,-2.72785 -5.51825,-2.55785 -4.985727,-3.50213 -1.94874,0.75286 -2.967643,1.68275 -3.075577,3.98318 z"
         style="fill:#c7aa8b;fill-opacity:1;stroke:#1a1a1a;stroke-width:0.49999997;stroke-linecap:round;stroke-linejoin:round;stroke-miterlimit:4;stroke-dasharray:none;stroke-dashoffset:0;paint-order:normal"
         inkscape:transform-center-x="1.2630934"
         inkscape:transform-center-y="2.0627806" />
      <g
         transform="translate(0.1489593,-5.7785281)"
         id="g4607">
        <g
           transform="translate(0,1.4774209)"
           id="g918">
          <path
             style="fill:#228698;fill-opacity:1;stroke:none;stroke-width:0.2;stroke-linecap:butt;stroke-linejoin:round;stroke-miterlimit:4;stroke-dasharray:none;stroke-opacity:1"
             d="M 70.416776,116.12864 C 56.072948,109.91959 48.466517,111.28616 42.392637,98.074 c 7.19683,3.87841 13.976525,7.59681 19.043539,9.93827 7.297262,3.37205 8.79968,4.80639 8.9806,8.11637 z"
             id="path911"
             inkscape:connector-curvature="0"
             sodipodi:nodetypes="ccsc" />
          <path
             style="fill:#228698;fill-opacity:1;stroke:none;stroke-width:0.2;stroke-linecap:butt;stroke-linejoin:round;stroke-miterlimit:4;stroke-dasharray:none;stroke-opacity:1"
             d="m 47.234307,108.93689 c 10.616081,3.11969 22.712469,8.46891 22.752065,8.47809 1.142912,0.38635 1.44063,3.32028 1.44063,3.32028 -0.03667,-0.15257 -13.461782,-2.20538 -16.336073,-3.48351 -2.874292,-1.27813 -4.688069,-4.17328 -7.856622,-8.31486 z"
             id="path913"
             inkscape:connector-curvature="0"
             sodipodi:nodetypes="ccczc" />
          <path
             style="fill:#228698;fill-opacity:1;stroke:none;stroke-width:0.2;stroke-linecap:butt;stroke-linejoin:round;stroke-miterlimit:4;stroke-dasharray:none;stroke-opacity:1"
             d="m 51.638204,118.13981 c 3.159751,3.01944 4.338164,6.09142 15.319962,5.9073 1.422126,-0.0239 3.532142,0.14277 5.284256,0.0807 0,0 0.0199,-2.14753 -1.063303,-2.33909 -12.962246,-2.29231 -15.789439,-2.84236 -19.540915,-3.64896 z"
             id="path915"
             inkscape:connector-curvature="0"
             sodipodi:nodetypes="cscsc" />
          <path
             style="fill:#228698;fill-opacity:1;stroke:none;stroke-width:0.2;stroke-linecap:butt;stroke-linejoin:round;stroke-miterlimit:4;stroke-dasharray:none;stroke-opacity:1"
             d="m 64.382349,124.73918 c -3.298371,-0.1042 -4.386328,1.66162 -5.195918,3.66293 1.960402,-0.22009 3.908682,-0.49331 5.195918,-3.66293 z"
             id="path917"
             inkscape:connector-curvature="0"
             sodipodi:nodetypes="ccc" />
          <path
             style="fill:#228698;fill-opacity:1;stroke:none;stroke-width:0.2;stroke-linecap:butt;stroke-linejoin:round;stroke-miterlimit:4;stroke-dasharray:none;stroke-opacity:1"
             d="m 68.935285,124.90677 c -4.642911,-1.45486 -4.696279,3.69773 -6.398949,6.47587 0.627781,0.0656 4.744002,-0.82531 6.398949,-6.47587 z"
             id="path919"
             inkscape:connector-curvature="0"
             sodipodi:nodetypes="ccc" />
          <path
             style="fill:#228698;fill-opacity:1;stroke:none;stroke-width:0.2;stroke-linecap:butt;stroke-linejoin:round;stroke-miterlimit:4;stroke-dasharray:none;stroke-opacity:1"
             d="m 68.011786,132.19262 1.898154,-7.39666 c 0.865515,-0.6614 2.38363,-0.0179 2.364871,-0.0335 l 1.13279,2.77275 z"
             id="path921"
             inkscape:connector-curvature="0"
             sodipodi:nodetypes="ccccc" />
          <g
             id="g1033">
            <path
               style="fill:#00afc2;fill-opacity:1;stroke:none;stroke-width:0.2;stroke-linecap:butt;stroke-linejoin:round;stroke-miterlimit:4;stroke-dasharray:none;stroke-opacity:1"
               d="m 63.947753,119.28353 c -17.017447,-4.12513 -25.154998,-1.16885 -34.375046,-14.59936 8.683508,2.9122 16.876042,5.72714 22.915706,7.34785 8.698024,2.33406 10.629684,3.63167 11.45934,7.25151 z"
               id="path826"
               inkscape:connector-curvature="0"
               sodipodi:nodetypes="ccsc" />
            <path
               style="fill:#00afc2;fill-opacity:1;stroke:none;stroke-width:0.2;stroke-linecap:butt;stroke-linejoin:round;stroke-miterlimit:4;stroke-dasharray:none;stroke-opacity:1"
               d="m 36.985291,115.75556 c 12.314024,1.42385 26.68663,5.02743 26.732091,5.03002 1.335319,0.20904 2.222358,3.39148 2.222358,3.39148 -0.06952,-0.16146 -15.281723,0.12712 -18.698226,-0.73696 -3.416502,-0.86407 -5.969912,-3.71518 -10.256223,-7.68454 z"
               id="path828"
               inkscape:connector-curvature="0"
               sodipodi:nodetypes="ccczc" />
            <path
               style="fill:#00afc2;fill-opacity:1;stroke:none;stroke-width:0.2;stroke-linecap:butt;stroke-linejoin:round;stroke-miterlimit:4;stroke-dasharray:none;stroke-opacity:1"
               d="m 43.598658,125.07762 c 4.063041,2.73218 5.948653,5.89944 18.037691,3.60623 1.565511,-0.29697 3.926711,-0.51458 5.849268,-0.91649 0,0 -0.386729,-2.3747 -1.619052,-2.38003 -14.746771,-0.0639 -17.972715,-0.13315 -22.267907,-0.30971 z"
               id="path830"
               inkscape:connector-curvature="0"
               sodipodi:nodetypes="cscsc" />
            <path
               style="fill:#00afc2;fill-opacity:1;stroke:none;stroke-width:0.2;stroke-linecap:butt;stroke-linejoin:round;stroke-miterlimit:4;stroke-dasharray:none;stroke-opacity:1"
               d="m 58.924313,129.93811 c -3.661284,0.51267 -4.526354,2.66921 -5.039288,5.03276 2.12243,-0.61607 4.221367,-1.28848 5.039288,-5.03276 z"
               id="path834"
               inkscape:connector-curvature="0"
               sodipodi:nodetypes="ccc" />
            <path
               style="fill:#00afc2;fill-opacity:1;stroke:none;stroke-width:0.2;stroke-linecap:butt;stroke-linejoin:round;stroke-miterlimit:4;stroke-dasharray:none;stroke-opacity:1"
               d="m 63.98272,129.25667 c -5.402719,-0.7226 -4.481055,4.97609 -5.832125,8.36723 0.705566,-0.047 5.08039,-1.81397 5.832125,-8.36723 z"
               id="path836"
               inkscape:connector-curvature="0"
               sodipodi:nodetypes="ccc" />
            <path
               style="fill:#00afc2;fill-opacity:1;stroke:none;stroke-width:0.2;stroke-linecap:round;stroke-linejoin:round;stroke-miterlimit:4;stroke-dasharray:none;stroke-opacity:1;paint-order:normal"
               d="m 64.349724,137.47611 0.687942,-8.52726 c 0.829672,-0.89492 2.582484,-0.50315 2.604484,-0.48701 0.277864,0.20373 1.850652,1.72941 1.778298,2.84558 -0.172182,2.65619 -5.070724,6.16869 -5.070724,6.16869 z"
               id="path838"
               inkscape:connector-curvature="0"
               sodipodi:nodetypes="ccssc" />
          </g>
          <path
             sodipodi:nodetypes="cscc"
             inkscape:connector-curvature="0"
             id="path869"
             d="m 91.542832,119.68664 c 0.202769,-2.25574 0.256768,-2.96735 -1.754838,-3.12598 -1.852163,-0.14606 -2.046164,0.95956 -2.332031,2.5354 z"
             style="fill:#4da1b0;fill-opacity:1;stroke:#000000;stroke-width:0.5;stroke-linecap:butt;stroke-linejoin:miter;stroke-miterlimit:4;stroke-dasharray:none;stroke-opacity:1" />
          <path
             inkscape:connector-curvature="0"
             id="path873"
             d="m 89.912809,119.11967 -1.039434,-1.25204"
             style="fill:#00afc2;fill-opacity:1;stroke:#000000;stroke-width:0.34999999;stroke-linecap:round;stroke-linejoin:round;stroke-miterlimit:4;stroke-dasharray:none;stroke-opacity:1" />
          <path
             sodipodi:nodetypes="cscc"
             inkscape:connector-curvature="0"
             id="path871"
             d="m 74.675644,122.42696 c 0.850335,-3.10265 -1.228198,-3.36391 -2.540507,-3.00696 -2.11607,0.57557 -1.550848,3.9932 0.107285,4.70786 z"
             style="fill:#66d1dd;fill-opacity:1;stroke:#000000;stroke-width:0.5;stroke-linecap:round;stroke-linejoin:round;stroke-miterlimit:4;stroke-dasharray:none;stroke-opacity:1" />
          <path
             sodipodi:nodetypes="ccc"
             inkscape:connector-curvature="0"
             id="path877"
             d="m 73.659833,120.7497 c -0.397745,1.22457 -0.33178,1.67832 -0.165364,2.64583 -0.566965,-1.52613 -1.133929,-1.99115 -1.700894,-2.33873"
             style="fill:none;fill-opacity:1;stroke:#000000;stroke-width:0.34999999;stroke-linecap:round;stroke-linejoin:round;stroke-miterlimit:4;stroke-dasharray:none;stroke-opacity:1" />
          <path
             sodipodi:nodetypes="cc"
             inkscape:connector-curvature="0"
             id="path875"
             d="m 89.912809,119.11967 c 0.14965,-0.49477 0.610262,-0.93772 1.133928,-1.37016"
             style="fill:#00afc2;fill-opacity:1;stroke:#000000;stroke-width:0.34999999;stroke-linecap:round;stroke-linejoin:round;stroke-miterlimit:4;stroke-dasharray:none;stroke-opacity:1" />
          <path
             sodipodi:nodetypes="zcssssz"
             inkscape:connector-curvature="0"
             id="path859"
             d="m 66.873273,169.51352 c -6.499834,-6.53337 -5.462533,-18.32449 -5.462533,-18.32449 1.25895,-23.89523 15.287062,-35.78858 31.581757,-31.7073 9.794733,2.45326 12.947823,13.01904 7.792203,26.14764 -1.067367,2.71801 -2.198421,7.76125 -1.784233,12.63923 0.291021,3.42741 0.508299,7.50294 -1.307882,9.57448 -3.909506,4.45918 -24.319478,8.20381 -30.819312,1.67044 z"
             style="fill:#66d1dd;fill-opacity:1;stroke:#000000;stroke-width:0.5;stroke-linecap:butt;stroke-linejoin:miter;stroke-miterlimit:4;stroke-dasharray:none;stroke-opacity:1" />
          <path
             style="fill:#4da1b0;fill-opacity:1;stroke:none;stroke-width:0.5;stroke-linecap:butt;stroke-linejoin:miter;stroke-miterlimit:4;stroke-dasharray:none;stroke-opacity:1"
             d="m 90.804009,170.99971 c 2.636149,-2.18187 2.667385,-8.54398 2.964974,-14.17004 0.210639,-3.98223 0.854794,-7.59569 1.321462,-9.09694 1.990107,-6.40212 2.425833,-6.28383 3.126028,-11.97029 1.300053,-10.55806 -1.630291,-12.55014 -4.357273,-14.15452 -2.19716,-1.29267 -3.946391,-2.48826 -8.442557,-2.88806 0,0 1.624054,-0.72885 7.575854,0.76188 9.794733,2.45325 12.947853,13.01905 7.792203,26.14764 -1.997428,7.02576 -1.987409,9.12159 -1.488498,15.79922 0.101832,4.24533 -0.712631,5.42944 -2.280171,6.9772 -1.567541,1.54776 -5.942679,2.72364 -6.212022,2.59391 z"
             id="path4547"
             inkscape:connector-curvature="0"
             sodipodi:nodetypes="csssscscczc" />
          <path
             sodipodi:nodetypes="cscc"
             inkscape:connector-curvature="0"
             id="path885"
             d="m 92.735818,140.81787 c -0.240499,1.33837 0.376607,2.12317 -1.332971,2.13028 -2.108535,0.009 -1.548112,-1.16776 -1.71446,-2.09488 z"
             style="fill:#ffffff;fill-opacity:1;stroke:#000000;stroke-width:0.5;stroke-linecap:round;stroke-linejoin:round;stroke-miterlimit:4;stroke-dasharray:none;stroke-opacity:1" />
          <path
             style="fill:#ececec;fill-opacity:1;stroke:none;stroke-width:0.5;stroke-linecap:round;stroke-linejoin:round;stroke-miterlimit:4;stroke-dasharray:none;stroke-opacity:1"
             d="m 92.735818,140.81787 c -0.290612,1.92302 0.301534,1.7323 -1.332971,2.13028 -0.428796,0.10441 0.139027,-1.16776 -0.02732,-2.09488 z"
             id="path4622"
             inkscape:connector-curvature="0"
             sodipodi:nodetypes="cscc" />
          <path
             inkscape:connector-curvature="0"
             id="path889"
             d="m 91.318408,142.9558 c -0.02363,-2.58678 -0.02363,-2.58678 -0.02363,-2.58678"
             style="fill:#00afc2;fill-opacity:1;stroke:#000000;stroke-width:0.34999999;stroke-linecap:butt;stroke-linejoin:miter;stroke-miterlimit:4;stroke-dasharray:none;stroke-opacity:1" />
          <path
             style="fill:none;fill-opacity:1;stroke:#000000;stroke-width:0.5;stroke-linecap:round;stroke-linejoin:round;stroke-miterlimit:4;stroke-dasharray:none;stroke-opacity:1"
             d="m 92.735818,140.81787 c -0.240499,1.33837 0.376607,2.12317 -1.332971,2.13028 -2.108535,0.009 -1.548112,-1.16776 -1.71446,-2.09488 z"
             id="path4624"
             inkscape:connector-curvature="0"
             sodipodi:nodetypes="cscc" />
          <path
             sodipodi:nodetypes="caasssac"
             inkscape:connector-curvature="0"
             id="path883"
             d="m 88.479114,138.97588 c 0.642453,-0.82386 2.014893,-0.70896 3.059274,-0.68138 0.881552,0.0233 2.081718,-0.0377 2.548353,0.71062 0.356857,0.57225 0.153948,1.56393 -0.369487,1.98917 -0.623497,0.50653 -1.546107,-0.22358 -2.452944,-0.19778 -1.045367,0.0297 -2.077543,0.73376 -2.73379,0.0804 -0.449227,-0.44725 -0.441219,-1.40114 -0.05141,-1.90103 z"
             style="fill:#f2cca4;fill-opacity:1;stroke:#000000;stroke-width:0.5;stroke-linecap:butt;stroke-linejoin:miter;stroke-miterlimit:4;stroke-dasharray:none;stroke-opacity:1" />
          <path
             style="fill:#c7aa8b;fill-opacity:1;stroke:none;stroke-width:0.5;stroke-linecap:butt;stroke-linejoin:miter;stroke-miterlimit:4;stroke-dasharray:none;stroke-opacity:1"
             d="m 91.688727,138.41143 c 1.533022,0.12353 1.952103,-0.0986 2.398014,0.59369 0.365188,0.56697 0.153948,1.56393 -0.369487,1.98917 -0.623497,0.50653 -0.894638,0.16062 -1.734657,-0.11426 0.448242,0.68367 1.225338,-3.28085 -0.29387,-2.4686 z"
             id="path4551"
             inkscape:connector-curvature="0"
             sodipodi:nodetypes="cascc" />
          <path
             style="fill:none;fill-opacity:1;stroke:#000000;stroke-width:0.5;stroke-linecap:butt;stroke-linejoin:miter;stroke-miterlimit:4;stroke-dasharray:none;stroke-opacity:1"
             d="m 88.479114,138.97588 c 0.642453,-0.82386 2.014893,-0.70896 3.059274,-0.68138 0.881552,0.0233 2.081718,-0.0377 2.548353,0.71062 0.356857,0.57225 0.153948,1.56393 -0.369487,1.98917 -0.623497,0.50653 -1.546107,-0.22358 -2.452944,-0.19778 -1.045367,0.0297 -2.077543,0.73376 -2.73379,0.0804 -0.449227,-0.44725 -0.441219,-1.40114 -0.05141,-1.90103 z"
             id="path4553"
             inkscape:connector-curvature="0"
             sodipodi:nodetypes="caasssac" />
          <path
             sodipodi:nodetypes="sasas"
             inkscape:connector-curvature="0"
             id="path887"
             d="m 92.712196,138.46733 c -5.3e-5,0.52168 -0.785942,0.85739 -1.307612,0.85992 -0.558622,0.003 -1.45656,-0.35061 -1.409092,-0.90722 0.06762,-0.79292 0.892529,-0.50396 1.38143,-0.49376 0.480139,0.01 1.335358,-0.2794 1.335274,0.54106 z"
             style="fill:#000000;fill-opacity:1;stroke:#000000;stroke-width:0.5;stroke-linecap:round;stroke-linejoin:round;stroke-miterlimit:4;stroke-dasharray:none;stroke-opacity:1" />
          <g
             id="g1049">
            <g
               id="g1040">
              <ellipse
                 transform="scale(-1,1)"
                 ry="7.3074565"
                 rx="7.541317"
                 cy="134.58492"
                 cx="-80.186424"
                 id="path861"
                 style="fill:#f9f9f9;fill-opacity:1;stroke:#000000;stroke-width:0.5;stroke-linecap:round;stroke-linejoin:round;stroke-miterlimit:4;stroke-dasharray:none" />
              <circle
                 transform="scale(-1,1)"
                 style="fill:#000000;fill-opacity:1;stroke:#000000;stroke-width:0.5;stroke-linecap:round;stroke-linejoin:round;stroke-miterlimit:4;stroke-dasharray:none"
                 id="circle867"
                 cx="-77.841202"
                 cy="134.7112"
                 r="1.3937871" />
              <circle
                 transform="scale(-1,1)"
                 r="0.52583039"
                 cy="133.89368"
                 cx="-78.329369"
                 id="circle881"
                 style="fill:#ffffff;fill-opacity:1;stroke:none;stroke-width:0.5;stroke-linecap:round;stroke-linejoin:round;stroke-miterlimit:4;stroke-dasharray:none" />
              <path
                 sodipodi:nodetypes="cscc"
                 inkscape:connector-curvature="0"
                 id="path4565"
                 d="m 80.186426,141.89236 c 4.854227,0 8.789354,-3.27166 8.789359,-7.30745 3e-6,-4.0358 -3.935128,-7.30746 -8.789359,-7.30746 8.383244,3.46727 7.576382,12.04573 0,14.61491 z"
                 style="fill:#4da1b0;fill-opacity:1;stroke:none;stroke-width:0.49999997;stroke-linecap:round;stroke-linejoin:round;stroke-miterlimit:4;stroke-dasharray:none" />
              <path
                 style="fill:#ececec;fill-opacity:1;stroke:none;stroke-width:0.5;stroke-linecap:round;stroke-linejoin:round;stroke-miterlimit:4;stroke-dasharray:none"
                 d="m 80.186424,141.89236 c 4.164952,0 7.541313,-3.27166 7.541317,-7.30745 2e-6,-4.0358 -3.376361,-7.30746 -7.541317,-7.30746 7.192867,3.46727 6.500576,12.04573 0,14.61491 z"
                 id="ellipse4560"
                 inkscape:connector-curvature="0"
                 sodipodi:nodetypes="cscc" />
            </g>
            <ellipse
               transform="scale(-1,1)"
               ry="7.3074565"
               rx="7.541317"
               cy="134.58492"
               cx="-80.186424"
               id="ellipse4563"
               style="fill:none;fill-opacity:1;stroke:#000000;stroke-width:0.5;stroke-linecap:round;stroke-linejoin:round;stroke-miterlimit:4;stroke-dasharray:none" />
          </g>
          <path
             style="fill:none;fill-opacity:1;stroke:#000000;stroke-width:0.5;stroke-linecap:butt;stroke-linejoin:miter;stroke-miterlimit:4;stroke-dasharray:none;stroke-opacity:1"
             d="m 66.873273,169.51352 c -6.499834,-6.53337 -5.462533,-18.32449 -5.462533,-18.32449 1.25895,-23.89523 15.287062,-35.78858 31.581757,-31.7073 9.794733,2.45326 12.947823,13.01904 7.792203,26.14764 -1.067367,2.71801 -2.198421,7.76125 -1.784233,12.63923 0.291021,3.42741 0.508299,7.50294 -1.307882,9.57448 -3.909506,4.45918 -24.319478,8.20381 -30.819312,1.67044 z"
             id="path874"
             inkscape:connector-curvature="0"
             sodipodi:nodetypes="zcssssz" />
          <g
             id="g1057">
            <ellipse
               ry="6.2012739"
               rx="6.3997326"
               cy="134.24254"
               cx="-100.12512"
               id="ellipse863"
               style="fill:#ffffff;fill-opacity:0.98672569;stroke:#000000;stroke-width:0.5;stroke-linecap:round;stroke-linejoin:round;stroke-miterlimit:4;stroke-dasharray:none"
               transform="scale(-1,1)" />
            <g
               style="fill:#00afc2;fill-opacity:1;stroke-width:0.5;stroke-miterlimit:4;stroke-dasharray:none"
               id="g964"
               transform="translate(3.6666666e-8,-11.641668)">
              <circle
                 transform="scale(-1,1)"
                 r="1.2427782"
                 cy="145.95125"
                 cx="-98.181046"
                 id="path865"
                 style="fill:#000000;fill-opacity:1;stroke:#000000;stroke-width:0.5;stroke-linecap:round;stroke-linejoin:round;stroke-miterlimit:4;stroke-dasharray:none" />
              <circle
                 transform="scale(-1,1)"
                 style="fill:#ffffff;fill-opacity:1;stroke:none;stroke-width:0.5;stroke-linecap:round;stroke-linejoin:round;stroke-miterlimit:4;stroke-dasharray:none"
                 id="circle879"
                 cx="-98.632065"
                 cy="145.29979"
                 r="0.46481356" />
              <path
                 transform="scale(-1,1)"
                 style="fill:#ececec;fill-opacity:0.98672569;stroke:none;stroke-width:0.5;stroke-linecap:round;stroke-linejoin:round;stroke-miterlimit:4;stroke-dasharray:none"
                 d="m -98.802203,151.99097 c 0,0 -7.628147,0.20017 -7.722647,-6.10677 0.14174,-4.60605 3.95194,-6.24852 7.486412,-6.24852 -5.612222,5.38103 -1.366992,11.28747 0.236235,12.35529 z"
                 id="ellipse4555"
                 inkscape:connector-curvature="0"
                 sodipodi:nodetypes="cccc" />
              <ellipse
                 ry="6.2012739"
                 rx="6.3997326"
                 cy="145.8842"
                 cx="-100.12512"
                 id="ellipse4558"
                 style="fill:none;fill-opacity:0.98672569;stroke:#000000;stroke-width:0.5;stroke-linecap:round;stroke-linejoin:round;stroke-miterlimit:4;stroke-dasharray:none"
                 transform="scale(-1,1)" />
            </g>
          </g>
        </g>
      </g>
      <g
         id="g1064">
        <path
           style="fill:#4da1b0;fill-opacity:1;stroke:none;stroke-width:0.40000001;stroke-linecap:round;stroke-linejoin:round;stroke-miterlimit:4;stroke-dasharray:none;stroke-dashoffset:0;paint-order:normal"
           d="m 84.233678,144.94698 c 0.895291,1.55321 0.244214,3.24051 -0.779895,3.85171 -1.603452,0.95696 -7.360545,-0.7255 -8.495788,-1.29312 0.04735,0.44102 -0.122976,-0.43747 0.270205,-0.3958 1.746489,0.18511 6.493081,1.18107 7.137503,0.76338 1.529934,-0.99165 2.742047,-2.70441 -0.804133,-4.60096 0,0 1.776817,0.12158 2.672108,1.67479 z"
           id="path4620"
           inkscape:connector-curvature="0"
           sodipodi:nodetypes="zscsscz" />
        <path
           style="fill:#f2cca4;fill-opacity:1;stroke:#1a1a1a;stroke-width:0.40000001;stroke-linecap:round;stroke-linejoin:round;stroke-miterlimit:4;stroke-dasharray:none;stroke-dashoffset:0;paint-order:normal"
           d="m 76.453029,141.87427 c 0,0 6.382242,1.3473 7.173332,2.73862 0.79109,1.39131 0.09849,3.13325 -1.080573,3.60115 -1.84327,0.73148 -7.481318,-1.03772 -7.481318,-1.03772 1.007634,-1.67699 1.855632,-3.38045 1.388562,-5.30205 z"
           id="rect4609"
           inkscape:connector-curvature="0"
           sodipodi:nodetypes="czsccc" />
        <path
           sodipodi:nodetypes="csccc"
           inkscape:connector-curvature="0"
           id="path4616"
           d="m 83.626361,144.61289 c 0.79109,1.39131 0.151871,3.30081 -1.080573,3.60115 -2.032258,0.49524 -2.04791,0.14346 -2.04791,0.14346 3.503379,-1.91409 1.763173,-4.59496 0.356149,-5.13542 0,0 0.638044,-0.35189 2.772334,1.39081 z"
           style="fill:#c7aa8b;fill-opacity:1;stroke:none;stroke-width:0.40000001;stroke-linecap:round;stroke-linejoin:round;stroke-miterlimit:4;stroke-dasharray:none;stroke-dashoffset:0;paint-order:normal" />
        <path
           sodipodi:nodetypes="czsccc"
           inkscape:connector-curvature="0"
           id="path4618"
           d="m 76.453029,141.87427 c 0,0 6.382242,1.3473 7.173332,2.73862 0.79109,1.39131 0.09849,3.13325 -1.080573,3.60115 -1.84327,0.73148 -7.481318,-1.03772 -7.481318,-1.03772 1.007634,-1.67699 1.855632,-3.38045 1.388562,-5.30205 z"
           style="fill:none;fill-opacity:1;stroke:#1a1a1a;stroke-width:0.5;stroke-linecap:round;stroke-linejoin:round;stroke-miterlimit:4;stroke-dasharray:none;stroke-dashoffset:0;paint-order:normal" />
        <path
           style="fill:none;stroke:#000000;stroke-width:0.5;stroke-linecap:round;stroke-linejoin:miter;stroke-miterlimit:4;stroke-dasharray:none;stroke-opacity:1"
           d="m 76.177497,140.96767 c 0.786929,1.96676 0.566638,3.90476 -1.782156,6.98694"
           id="path4612"
           inkscape:connector-curvature="0"
           sodipodi:nodetypes="cc" />
      </g>
      <g
         id="g4617">
        <g
           id="g891"
           transform="matrix(-0.94574226,0.32491781,0.32491781,0.94574226,95.263704,-14.710768)">
          <g
             id="g1069">
            <path
               sodipodi:nodetypes="cc"
               inkscape:connector-curvature="0"
               id="path868"
               d="m 72.906089,161.26656 c 2.391619,0.11119 5.043995,0.86094 7.062815,3.88265"
               style="fill:none;stroke:#000000;stroke-width:0.5;stroke-linecap:round;stroke-linejoin:miter;stroke-miterlimit:4;stroke-dasharray:none;stroke-opacity:1" />
            <path
               inkscape:transform-center-y="2.0044552"
               inkscape:transform-center-x="-1.8708933"
               style="fill:#c7aa8b;fill-opacity:1;stroke:none;stroke-width:0.40000001;stroke-linecap:round;stroke-linejoin:round;stroke-miterlimit:4;stroke-dasharray:none;stroke-dashoffset:0;paint-order:normal"
               d="m 79.284026,164.31398 c 0,0 -2.346516,5.46427 -5.09506,5.3147 -0.921387,-0.0501 -0.558187,-0.0631 -1.330627,-0.19355 2.317104,-1.47925 4.475682,-3.56284 4.559535,-6.74837 1.540698,0.86442 1.877498,1.62464 1.866152,1.62722 z"
               id="path870"
               inkscape:connector-curvature="0"
               sodipodi:nodetypes="csccc" />
            <path
               inkscape:transform-center-y="2.0044552"
               inkscape:transform-center-x="-1.8708933"
               style="fill:none;fill-opacity:1;stroke:#1a1a1a;stroke-width:0.5;stroke-linecap:round;stroke-linejoin:round;stroke-miterlimit:4;stroke-dasharray:none;stroke-dashoffset:0;paint-order:normal"
               d="m 79.284026,164.31398 c 0,0 -2.346516,5.46427 -5.09506,5.3147 -2.748545,-0.14957 -4.025298,-1.75215 -3.779734,-3.14792 0.228915,-1.30114 3.280679,-4.25158 3.702467,-5.08631 3.076746,0.16352 5.189319,2.91567 5.172327,2.91953 z"
               id="path872"
               inkscape:connector-curvature="0"
               sodipodi:nodetypes="czscc" />
          </g>
          <path
             sodipodi:nodetypes="ccsccc"
             inkscape:connector-curvature="0"
             id="path1088"
             d="m 73.650152,162.05161 c -2.737441,2.42067 -4.952967,5.18076 -3.476136,7.21185 l 3.589357,-0.68075 c 2.81418,-0.53374 0.43124,-8.83429 0.662979,-7.21887 -0.102194,6.52704 2.228274,7.60332 0.284496,1.71866 z"
             style="fill:#4da1b0;fill-opacity:1;stroke:none;stroke-width:0.40000001;stroke-linecap:round;stroke-linejoin:round;stroke-miterlimit:4;stroke-dasharray:none;stroke-dashoffset:0;paint-order:normal"
             inkscape:transform-center-x="-1.8708933"
             inkscape:transform-center-y="2.0044552" />
          <path
             inkscape:transform-center-y="2.0044552"
             inkscape:transform-center-x="-1.8708933"
             style="fill:#f2cca4;fill-opacity:1;stroke:#1a1a1a;stroke-width:0.40000001;stroke-linecap:round;stroke-linejoin:round;stroke-miterlimit:4;stroke-dasharray:none;stroke-dashoffset:0;paint-order:normal"
             d="m 79.284026,164.31398 c 0,0 -2.346516,5.46427 -5.09506,5.3147 -2.748545,-0.14957 -4.025298,-1.75215 -3.779734,-3.14792 0.228915,-1.30114 3.280679,-4.25158 3.702467,-5.08631 3.076746,0.16352 5.189319,2.91567 5.172327,2.91953 z"
             id="path864"
             inkscape:connector-curvature="0"
             sodipodi:nodetypes="czscc" />
          <path
             sodipodi:nodetypes="cc"
             inkscape:connector-curvature="0"
             id="path1071"
             d="m 72.906089,161.26656 c 2.391619,0.11119 5.043995,0.86094 7.062815,3.88265"
             style="fill:none;stroke:#000000;stroke-width:0.5;stroke-linecap:round;stroke-linejoin:miter;stroke-miterlimit:4;stroke-dasharray:none;stroke-opacity:1" />
          <path
             inkscape:transform-center-y="2.0044552"
             inkscape:transform-center-x="-1.8708933"
             style="fill:#c7aa8b;fill-opacity:1;stroke:none;stroke-width:0.40000001;stroke-linecap:round;stroke-linejoin:round;stroke-miterlimit:4;stroke-dasharray:none;stroke-dashoffset:0;paint-order:normal"
             d="m 79.284026,164.31398 c 0,0 -2.346516,5.46427 -5.09506,5.3147 -0.921387,-0.0501 -0.558187,-0.0631 -1.330627,-0.19355 2.317104,-1.47925 4.475682,-3.56284 4.559535,-6.74837 1.540698,0.86442 1.877498,1.62464 1.866152,1.62722 z"
             id="path1073"
             inkscape:connector-curvature="0"
             sodipodi:nodetypes="csccc" />
          <path
             inkscape:transform-center-y="2.0044552"
             inkscape:transform-center-x="-1.8708933"
             style="fill:none;fill-opacity:1;stroke:#1a1a1a;stroke-width:0.5;stroke-linecap:round;stroke-linejoin:round;stroke-miterlimit:4;stroke-dasharray:none;stroke-dashoffset:0;paint-order:normal"
             d="m 79.284026,164.31398 c 0,0 -2.346516,5.46427 -5.09506,5.3147 -2.748545,-0.14957 -4.025298,-1.75215 -3.779734,-3.14792 0.228915,-1.30114 3.280679,-4.25158 3.702467,-5.08631 3.076746,0.16352 5.189319,2.91567 5.172327,2.91953 z"
             id="path1075"
             inkscape:connector-curvature="0"
             sodipodi:nodetypes="czscc" />
        </g>
      </g>
    </g>
  </g>
</svg>
